REM DIRINDEX 1\2,1\3,1\4,1\5
REM DIRNAME cjc156,folder01,folder02,folder03,folder04
TITLE ""
FILE "CD2Track04.mp3" MP3
  TRACK 01 AUDIO
    TITLE "5:cjc156_1963"
    INDEX 01 00:00:00
  TRACK 02 AUDIO
    TITLE "0:"
    INDEX 01 00:01:32
  TRACK 03 AUDIO
    TITLE "2:cjc156_1964"
    INDEX 01 00:02:34
  TRACK 04 AUDIO
    TITLE "3:cjc156_1965"
    INDEX 01 00:04:60
  TRACK 05 AUDIO
    TITLE "2:cjc156_1966"
    INDEX 01 00:07:13
  TRACK 06 AUDIO
    TITLE "3:cjc156_1967"
    INDEX 01 00:09:26
  TRACK 07 AUDIO
    TITLE "2:cjc156_1968"
    INDEX 01 00:11:46
  TRACK 08 AUDIO
    TITLE "3:cjc156_1969"
    INDEX 01 00:13:43
  TRACK 09 AUDIO
    TITLE "2:cjc156_1970"
    INDEX 01 00:15:44
  TRACK 10 AUDIO
    TITLE "3:cjc156_1971"
    INDEX 01 00:17:00
  TRACK 11 AUDIO
    TITLE "2:cjc156_1972"
    INDEX 01 00:18:35
  TRACK 12 AUDIO
    TITLE "3:cjc156_1973"
    INDEX 01 00:20:22
  TRACK 13 AUDIO
    TITLE "2:cjc156_1974"
    INDEX 01 00:22:15
  TRACK 14 AUDIO
    TITLE "3:cjc156_1975"
    INDEX 01 00:24:45
  TRACK 15 AUDIO
    TITLE "2:cjc156_1976"
    INDEX 01 00:27:06
  TRACK 16 AUDIO
    TITLE "3:cjc156_1977"
    INDEX 01 00:29:03
  TRACK 17 AUDIO
    TITLE "2:cjc156_1978"
    INDEX 01 00:31:06
  TRACK 18 AUDIO
    TITLE "3:cjc156_1979"
    INDEX 01 00:33:01
  TRACK 19 AUDIO
    TITLE "2:cjc156_1980"
    INDEX 01 00:35:00
  TRACK 20 AUDIO
    TITLE "3:cjc156_1981"
    INDEX 01 00:37:16
  TRACK 21 AUDIO
    TITLE "2:cjc156_1982"
    INDEX 01 00:39:37
  TRACK 22 AUDIO
    TITLE "3:cjc156_1983"
    INDEX 01 00:41:59
  TRACK 23 AUDIO
    TITLE "2:cjc156_1984"
    INDEX 01 00:44:12
  TRACK 24 AUDIO
    TITLE "3:cjc156_1985"
    INDEX 01 00:46:07
  TRACK 25 AUDIO
    TITLE "2:cjc156_1986"
    INDEX 01 00:48:08
  TRACK 26 AUDIO
    TITLE "3:cjc156_1987"
    INDEX 01 00:49:43
  TRACK 27 AUDIO
    TITLE "2:cjc156_1988"
    INDEX 01 00:51:05
  TRACK 28 AUDIO
    TITLE "3:cjc156_1989"
    INDEX 01 00:52:69
  TRACK 29 AUDIO
    TITLE "2:cjc156_1990"
    INDEX 01 00:54:60
  TRACK 30 AUDIO
    TITLE "3:cjc156_1991"
    INDEX 01 00:56:31
  TRACK 31 AUDIO
    TITLE "2:cjc156_1992"
    INDEX 01 00:58:11
  TRACK 32 AUDIO
    TITLE "3:cjc156_1993"
    INDEX 01 01:00:55
  TRACK 33 AUDIO
    TITLE "2:cjc156_1994"
    INDEX 01 01:03:31
  TRACK 34 AUDIO
    TITLE "3:cjc156_1995"
    INDEX 01 01:05:21
  TRACK 35 AUDIO
    TITLE "2:cjc156_1996"
    INDEX 01 01:07:14
  TRACK 36 AUDIO
    TITLE "3:cjc156_1997"
    INDEX 01 01:09:48
  TRACK 37 AUDIO
    TITLE "2:cjc156_1998"
    INDEX 01 01:12:13
  TRACK 38 AUDIO
    TITLE "3:cjc156_1999"
    INDEX 01 01:14:04
  TRACK 39 AUDIO
    TITLE "2:cjc156_2000"
    INDEX 01 01:16:01
  TRACK 40 AUDIO
    TITLE "3:cjc156_2001"
    INDEX 01 01:18:15
  TRACK 41 AUDIO
    TITLE "2:cjc156_2002"
    INDEX 01 01:20:34
  TRACK 42 AUDIO
    TITLE "3:cjc156_2003"
    INDEX 01 01:22:09
  TRACK 43 AUDIO
    TITLE "2:cjc156_2004"
    INDEX 01 01:23:65
  TRACK 44 AUDIO
    TITLE "3:cjc156_2005"
    INDEX 01 01:25:31
  TRACK 45 AUDIO
    TITLE "2:cjc156_2006"
    INDEX 01 01:27:03
  TRACK 46 AUDIO
    TITLE "3:cjc156_2007"
    INDEX 01 01:29:45
  TRACK 47 AUDIO
    TITLE "2:cjc156_2008"
    INDEX 01 01:32:13
  TRACK 48 AUDIO
    TITLE "3:cjc156_2009"
    INDEX 01 01:34:40
  TRACK 49 AUDIO
    TITLE "2:cjc156_2010"
    INDEX 01 01:37:03
  TRACK 50 AUDIO
    TITLE "3:cjc156_2011"
    INDEX 01 01:39:21
  TRACK 51 AUDIO
    TITLE "2:cjc156_2012"
    INDEX 01 01:41:48
  TRACK 52 AUDIO
    TITLE "3:cjc156_2013"
    INDEX 01 01:43:51
  TRACK 53 AUDIO
    TITLE "2:cjc156_2014"
    INDEX 01 01:45:53
  TRACK 54 AUDIO
    TITLE "3:cjc156_2015"
    INDEX 01 01:47:56
  TRACK 55 AUDIO
    TITLE "2:cjc156_2016"
    INDEX 01 01:49:63
  TRACK 56 AUDIO
    TITLE "3:cjc156_2017"
    INDEX 01 01:51:58
  TRACK 57 AUDIO
    TITLE "2:cjc156_2018"
    INDEX 01 01:53:59
  TRACK 58 AUDIO
    TITLE "3:cjc156_2019"
    INDEX 01 01:55:69
  TRACK 59 AUDIO
    TITLE "2:cjc156_2020"
    INDEX 01 01:58:09
  TRACK 60 AUDIO
    TITLE "3:cjc156_2021"
    INDEX 01 02:01:01
  TRACK 61 AUDIO
    TITLE "2:cjc156_2022"
    INDEX 01 02:04:02
  TRACK 62 AUDIO
    TITLE "3:cjc156_2023"
    INDEX 01 02:05:33
  TRACK 63 AUDIO
    TITLE "2:cjc156_2024"
    INDEX 01 02:06:63
  TRACK 64 AUDIO
    TITLE "3:cjc156_2025"
    INDEX 01 02:08:21
  TRACK 65 AUDIO
    TITLE "2:cjc156_2026"
    INDEX 01 02:09:56
  TRACK 66 AUDIO
    TITLE "3:cjc156_2027"
    INDEX 01 02:12:68
  TRACK 67 AUDIO
    TITLE "2:cjc156_2028"
    INDEX 01 02:15:74
  TRACK 68 AUDIO
    TITLE "3:cjc156_2029"
    INDEX 01 02:18:39
  TRACK 69 AUDIO
    TITLE "2:cjc156_2030"
    INDEX 01 02:21:08
  TRACK 70 AUDIO
    TITLE "3:cjc156_2031"
    INDEX 01 02:22:25
  TRACK 71 AUDIO
    TITLE "2:cjc156_2032"
    INDEX 01 02:23:50
  TRACK 72 AUDIO
    TITLE "3:cjc156_2033"
    INDEX 01 02:25:08
  TRACK 73 AUDIO
    TITLE "2:cjc156_2034"
    INDEX 01 02:26:52
  TRACK 74 AUDIO
    TITLE "3:cjc156_2035"
    INDEX 01 02:28:08
  TRACK 75 AUDIO
    TITLE "2:cjc156_2036"
    INDEX 01 02:29:45
  TRACK 76 AUDIO
    TITLE "3:cjc156_2037"
    INDEX 01 02:32:22
  TRACK 77 AUDIO
    TITLE "2:cjc156_2038"
    INDEX 01 02:35:04
  TRACK 78 AUDIO
    TITLE "3:cjc156_2039"
    INDEX 01 02:36:72
  TRACK 79 AUDIO
    TITLE "2:cjc156_2040"
    INDEX 01 02:39:02
  TRACK 80 AUDIO
    TITLE "3:cjc156_2041"
    INDEX 01 02:41:52
  TRACK 81 AUDIO
    TITLE "2:cjc156_2042"
    INDEX 01 02:44:36
  TRACK 82 AUDIO
    TITLE "3:cjc156_2043"
    INDEX 01 02:47:27
  TRACK 83 AUDIO
    TITLE "2:cjc156_2044"
    INDEX 01 02:50:23
  TRACK 84 AUDIO
    TITLE "3:cjc156_2045"
    INDEX 01 02:52:36
  TRACK 85 AUDIO
    TITLE "2:cjc156_2046"
    INDEX 01 02:54:60
  TRACK 86 AUDIO
    TITLE "3:cjc156_2047"
    INDEX 01 02:57:20
  TRACK 87 AUDIO
    TITLE "2:cjc156_2048"
    INDEX 01 02:59:56
  TRACK 88 AUDIO
    TITLE "3:cjc156_2049"
    INDEX 01 03:01:08
  TRACK 89 AUDIO
    TITLE "2:cjc156_2050"
    INDEX 01 03:02:32
  TRACK 90 AUDIO
    TITLE "3:cjc156_2051"
    INDEX 01 03:04:74
  TRACK 91 AUDIO
    TITLE "2:cjc156_2052"
    INDEX 01 03:07:51
  TRACK 92 AUDIO
    TITLE "3:cjc156_2053"
    INDEX 01 03:10:26
  TRACK 93 AUDIO
    TITLE "2:cjc156_2054"
    INDEX 01 03:13:22
  TRACK 94 AUDIO
    TITLE "3:cjc156_2055"
    INDEX 01 03:15:14
  TRACK 95 AUDIO
    TITLE "2:cjc156_2056"
    INDEX 01 03:17:09
  TRACK 96 AUDIO
    TITLE "3:cjc156_2057"
    INDEX 01 03:19:27
  TRACK 97 AUDIO
    TITLE "2:cjc156_2058"
    INDEX 01 03:21:59
  TRACK 98 AUDIO
    TITLE "3:cjc156_2059"
    INDEX 01 03:23:25
  TRACK 99 AUDIO
    TITLE "2:cjc156_2060"
    INDEX 01 03:25:00
  TRACK 100 AUDIO
    TITLE "3:cjc156_2061"
    INDEX 01 03:27:54
  TRACK 101 AUDIO
    TITLE "2:cjc156_2062"
    INDEX 01 03:30:39
  TRACK 102 AUDIO
    TITLE "3:cjc156_2063"
    INDEX 01 03:33:06
  TRACK 103 AUDIO
    TITLE "2:cjc156_2064"
    INDEX 01 03:35:53
  TRACK 104 AUDIO
    TITLE "3:cjc156_2065"
    INDEX 01 03:37:54
  TRACK 105 AUDIO
    TITLE "2:cjc156_2066"
    INDEX 01 03:39:65
  TRACK 106 AUDIO
    TITLE "3:cjc156_2067"
    INDEX 01 03:42:03
  TRACK 107 AUDIO
    TITLE "2:cjc156_2068"
    INDEX 01 03:44:13
  TRACK 108 AUDIO
    TITLE "3:cjc156_2069"
    INDEX 01 03:46:47
  TRACK 109 AUDIO
    TITLE "2:cjc156_2070"
    INDEX 01 03:49:16
  TRACK 110 AUDIO
    TITLE "3:cjc156_2071"
    INDEX 01 03:51:70
  TRACK 111 AUDIO
    TITLE "2:cjc156_2072"
    INDEX 01 03:54:61
  TRACK 112 AUDIO
    TITLE "3:cjc156_2073"
    INDEX 01 03:57:32
  TRACK 113 AUDIO
    TITLE "2:cjc156_2074"
    INDEX 01 03:59:74
  TRACK 114 AUDIO
    TITLE "3:cjc156_2075"
    INDEX 01 04:02:31
  TRACK 115 AUDIO
    TITLE "2:cjc156_2076"
    INDEX 01 04:04:73
  TRACK 116 AUDIO
    TITLE "3:cjc156_2077"
    INDEX 01 04:06:17
  TRACK 117 AUDIO
    TITLE "2:cjc156_2078"
    INDEX 01 04:07:48
  TRACK 118 AUDIO
    TITLE "3:cjc156_2079"
    INDEX 01 04:10:01
  TRACK 119 AUDIO
    TITLE "2:cjc156_2080"
    INDEX 01 04:12:35
  TRACK 120 AUDIO
    TITLE "3:cjc156_2081"
    INDEX 01 04:15:37
  TRACK 121 AUDIO
    TITLE "2:cjc156_2082"
    INDEX 01 04:18:45
  TRACK 122 AUDIO
    TITLE "3:cjc156_2083"
    INDEX 01 04:21:65
  TRACK 123 AUDIO
    TITLE "2:cjc156_2084"
    INDEX 01 04:25:20
  TRACK 124 AUDIO
    TITLE "3:cjc156_2085"
    INDEX 01 04:27:19
  TRACK 125 AUDIO
    TITLE "2:cjc156_2086"
    INDEX 01 04:29:28
  TRACK 126 AUDIO
    TITLE "3:cjc156_2087"
    INDEX 01 04:31:15
  TRACK 127 AUDIO
    TITLE "2:cjc156_2088"
    INDEX 01 04:33:16
  TRACK 128 AUDIO
    TITLE "3:cjc156_2089"
    INDEX 01 04:34:37
  TRACK 129 AUDIO
    TITLE "2:cjc156_2090"
    INDEX 01 04:35:63
  TRACK 130 AUDIO
    TITLE "3:cjc156_2091"
    INDEX 01 04:37:45
  TRACK 131 AUDIO
    TITLE "2:cjc156_2092"
    INDEX 01 04:39:36
  TRACK 132 AUDIO
    TITLE "3:cjc156_2093"
    INDEX 01 04:41:11
  TRACK 133 AUDIO
    TITLE "2:cjc156_2094"
    INDEX 01 04:42:69
  TRACK 134 AUDIO
    TITLE "3:cjc156_2095"
    INDEX 01 04:46:24
  TRACK 135 AUDIO
    TITLE "2:cjc156_2096"
    INDEX 01 04:49:66
  TRACK 136 AUDIO
    TITLE "3:cjc156_2097"
    INDEX 01 04:51:62
  TRACK 137 AUDIO
    TITLE "2:cjc156_2098"
    INDEX 01 04:53:71
  TRACK 138 AUDIO
    TITLE "3:cjc156_2099"
    INDEX 01 04:56:05
  TRACK 139 AUDIO
    TITLE "2:cjc156_2100"
    INDEX 01 04:58:18
  TRACK 140 AUDIO
    TITLE "3:cjc156_2101"
    INDEX 01 04:59:39
  TRACK 141 AUDIO
    TITLE "2:cjc156_2102"
    INDEX 01 05:00:61
  TRACK 142 AUDIO
    TITLE "3:cjc156_2103"
    INDEX 01 05:02:35
  TRACK 143 AUDIO
    TITLE "2:cjc156_2104"
    INDEX 01 05:04:10
  TRACK 144 AUDIO
    TITLE "3:cjc156_2105"
    INDEX 01 05:06:52
  TRACK 145 AUDIO
    TITLE "2:cjc156_2106"
    INDEX 01 05:09:25
  TRACK 146 AUDIO
    TITLE "3:cjc156_2107"
    INDEX 01 05:11:06
  TRACK 147 AUDIO
    TITLE "2:cjc156_2108"
    INDEX 01 05:12:61
  TRACK 148 AUDIO
    TITLE "3:cjc156_2109"
    INDEX 01 05:14:34
  TRACK 149 AUDIO
    TITLE "2:cjc156_2110"
    INDEX 01 05:16:12
  TRACK 150 AUDIO
    TITLE "3:cjc156_2111"
    INDEX 01 05:17:34
  TRACK 151 AUDIO
    TITLE "2:cjc156_2112"
    INDEX 01 05:18:61
  TRACK 152 AUDIO
    TITLE "3:cjc156_2113"
    INDEX 01 05:21:30
  TRACK 153 AUDIO
    TITLE "2:cjc156_2114"
    INDEX 01 05:24:05
  TRACK 154 AUDIO
    TITLE "3:cjc156_2115"
    INDEX 01 05:26:51
  TRACK 155 AUDIO
    TITLE "2:cjc156_2116"
    INDEX 01 05:29:26
  TRACK 156 AUDIO
    TITLE "3:cjc156_2117"
    INDEX 01 05:30:47
  TRACK 157 AUDIO
    TITLE "2:cjc156_2118"
    INDEX 01 05:32:05
  TRACK 158 AUDIO
    TITLE "3:cjc156_2119"
    INDEX 01 05:33:12
  TRACK 159 AUDIO
    TITLE "2:cjc156_2120"
    INDEX 01 05:34:29
  TRACK 160 AUDIO
    TITLE "3:cjc156_2121"
    INDEX 01 05:36:34
  TRACK 161 AUDIO
    TITLE "2:cjc156_2122"
    INDEX 01 05:38:44
  TRACK 162 AUDIO
    TITLE "3:cjc156_2123"
    INDEX 01 05:40:41
  TRACK 163 AUDIO
    TITLE "2:cjc156_2124"
    INDEX 01 05:42:48
  TRACK 164 AUDIO
    TITLE "3:cjc156_2125"
    INDEX 01 05:45:07
  TRACK 165 AUDIO
    TITLE "2:cjc156_2126"
    INDEX 01 05:47:49
  TRACK 166 AUDIO
    TITLE "3:cjc156_2127"
    INDEX 01 05:49:34
  TRACK 167 AUDIO
    TITLE "2:cjc156_2128"
    INDEX 01 05:51:27
  TRACK 168 AUDIO
    TITLE "3:cjc156_2129"
    INDEX 01 05:53:05
  TRACK 169 AUDIO
    TITLE "2:cjc156_2130"
    INDEX 01 05:54:61
  TRACK 170 AUDIO
    TITLE "3:cjc156_2131"
    INDEX 01 05:57:10
  TRACK 171 AUDIO
    TITLE "2:cjc156_2132"
    INDEX 01 05:59:37
  TRACK 172 AUDIO
    TITLE "3:cjc156_2133"
    INDEX 01 06:01:26
  TRACK 173 AUDIO
    TITLE "2:cjc156_2134"
    INDEX 01 06:03:19
  TRACK 174 AUDIO
    TITLE "3:cjc156_2135"
    INDEX 01 06:05:20
  TRACK 175 AUDIO
    TITLE "2:cjc156_2136"
    INDEX 01 06:07:27
  TRACK 176 AUDIO
    TITLE "3:cjc156_2137"
    INDEX 01 06:09:70
  TRACK 177 AUDIO
    TITLE "2:cjc156_2138"
    INDEX 01 06:12:43
  TRACK 178 AUDIO
    TITLE "3:cjc156_2139"
    INDEX 01 06:14:30
  TRACK 179 AUDIO
    TITLE "2:cjc156_2140"
    INDEX 01 06:16:20
  TRACK 180 AUDIO
    TITLE "3:cjc156_2141"
    INDEX 01 06:18:09
  TRACK 181 AUDIO
    TITLE "2:cjc156_2142"
    INDEX 01 06:19:73
  TRACK 182 AUDIO
    TITLE "3:cjc156_2143"
    INDEX 01 06:21:15
  TRACK 183 AUDIO
    TITLE "2:cjc156_2144"
    INDEX 01 06:22:40
  TRACK 184 AUDIO
    TITLE "3:cjc156_2145"
    INDEX 01 06:24:68
  TRACK 185 AUDIO
    TITLE "2:cjc156_2146"
    INDEX 01 06:27:33
  TRACK 186 AUDIO
    TITLE "3:cjc156_2147"
    INDEX 01 06:30:33
  TRACK 187 AUDIO
    TITLE "2:cjc156_2148"
    INDEX 01 06:33:44
  TRACK 188 AUDIO
    TITLE "3:cjc156_2149"
    INDEX 01 06:35:19
  TRACK 189 AUDIO
    TITLE "2:cjc156_2150"
    INDEX 01 06:37:06
  TRACK 190 AUDIO
    TITLE "3:cjc156_2151"
    INDEX 01 06:38:74
  TRACK 191 AUDIO
    TITLE "2:cjc156_2152"
    INDEX 01 06:41:00
  TRACK 192 AUDIO
    TITLE "3:cjc156_2153"
    INDEX 01 06:42:27
  TRACK 193 AUDIO
    TITLE "2:cjc156_2154"
    INDEX 01 06:43:56
  TRACK 194 AUDIO
    TITLE "3:cjc156_2155"
    INDEX 01 06:45:66
  TRACK 195 AUDIO
    TITLE "2:cjc156_2156"
    INDEX 01 06:48:08
  TRACK 196 AUDIO
    TITLE "3:cjc156_2157"
    INDEX 01 06:50:32
  TRACK 197 AUDIO
    TITLE "2:cjc156_2158"
    INDEX 01 06:52:62
  TRACK 198 AUDIO
    TITLE "3:cjc156_2159"
    INDEX 01 06:55:18
  TRACK 199 AUDIO
    TITLE "2:cjc156_2160"
    INDEX 01 06:57:58
  TRACK 200 AUDIO
    TITLE "3:cjc156_2161"
    INDEX 01 06:59:27
  TRACK 201 AUDIO
    TITLE "2:cjc156_2162"
    INDEX 01 07:01:10
  TRACK 202 AUDIO
    TITLE "3:cjc156_2163"
    INDEX 01 07:03:60
  TRACK 203 AUDIO
    TITLE "2:cjc156_2164"
    INDEX 01 07:06:47
  TRACK 204 AUDIO
    TITLE "3:cjc156_2165"
    INDEX 01 07:08:73
  TRACK 205 AUDIO
    TITLE "2:cjc156_2166"
    INDEX 01 07:11:30
  TRACK 206 AUDIO
    TITLE "3:cjc156_2167"
    INDEX 01 07:13:00
  TRACK 207 AUDIO
    TITLE "2:cjc156_2168"
    INDEX 01 07:14:50
  TRACK 208 AUDIO
    TITLE "3:cjc156_2169"
    INDEX 01 07:16:39
  TRACK 209 AUDIO
    TITLE "2:cjc156_2170"
    INDEX 01 07:18:38
  TRACK 210 AUDIO
    TITLE "3:cjc156_2171"
    INDEX 01 07:20:31
  TRACK 211 AUDIO
    TITLE "2:cjc156_2172"
    INDEX 01 07:22:38
  TRACK 212 AUDIO
    TITLE "3:cjc156_2173"
    INDEX 01 07:23:71
  TRACK 213 AUDIO
    TITLE "2:cjc156_2174"
    INDEX 01 07:25:36
  TRACK 214 AUDIO
    TITLE "3:cjc156_2175"
    INDEX 01 07:27:53
  TRACK 215 AUDIO
    TITLE "2:cjc156_2176"
    INDEX 01 07:29:71
  TRACK 216 AUDIO
    TITLE "3:cjc156_2177"
    INDEX 01 07:32:13
  TRACK 217 AUDIO
    TITLE "2:cjc156_2178"
    INDEX 01 07:34:35
  TRACK 218 AUDIO
    TITLE "3:cjc156_2179"
    INDEX 01 07:36:34
  TRACK 219 AUDIO
    TITLE "2:cjc156_2180"
    INDEX 01 07:38:43
  TRACK 220 AUDIO
    TITLE "3:cjc156_2181"
    INDEX 01 07:40:69
  TRACK 221 AUDIO
    TITLE "0:"
    INDEX 01 07:43:27
